<svg id="Group_76" data-name="Group 76" xmlns="http://www.w3.org/2000/svg" width="1535" height="984.892" viewBox="0 0 1535 984.892">
  <defs>
    <style>
      .cls-1 {
        fill: #e6e6e6;
      }

      .cls-2 {
        fill: #fff;
      }

      .cls-3 {
        fill: #ec5b2b;
      }

      .cls-4 {
        fill: #0f254c;
      }

      .cls-5 {
        fill: #ccc;
      }

      .cls-6 {
        fill: #ffb9b9;
      }

      .cls-7 {
        fill: #2f2e41;
      }

      .cls-8 {
        fill: #ed8332;
      }
    </style>
  </defs>
  <rect id="Rectangle_32" data-name="Rectangle 32" class="cls-1" width="1057.126" height="677.03" transform="translate(477.874 0.599)"/>
  <rect id="Rectangle_33" data-name="Rectangle 33" class="cls-2" width="996.669" height="552.061" transform="translate(508.102 85.516)"/>
  <rect id="Rectangle_34" data-name="Rectangle 34" class="cls-3" width="1057.126" height="44.911" transform="translate(477.423)"/>
  <circle id="Ellipse_4" data-name="Ellipse 4" class="cls-4" cx="8.324" cy="8.324" r="8.324" transform="translate(502.473 14.637)"/>
  <circle id="Ellipse_5" data-name="Ellipse 5" class="cls-4" cx="8.324" cy="8.324" r="8.324" transform="translate(534.068 14.637)"/>
  <circle id="Ellipse_6" data-name="Ellipse 6" class="cls-4" cx="8.324" cy="8.324" r="8.324" transform="translate(565.663 14.637)"/>
  <path id="Path_69" data-name="Path 69" class="cls-5" d="M1001.182,246.94H676.7a2.88,2.88,0,0,1,0-5.711h324.483a2.88,2.88,0,0,1,0,5.711Z" transform="translate(221.577 -109.717)"/>
  <path id="Path_70" data-name="Path 70" class="cls-5" d="M821.312,265.107H615.005a2.88,2.88,0,0,1,0-5.711H821.312a2.88,2.88,0,0,1,0,5.711Z" transform="translate(176.612 -96.475)"/>
  <path id="Path_71" data-name="Path 71" class="cls-5" d="M951.361,265.438H745.054a2.88,2.88,0,0,1,0-5.711H951.361a2.88,2.88,0,0,1,0,5.711Z" transform="translate(271.398 -96.235)"/>
  <path id="Path_72" data-name="Path 72" class="cls-5" d="M821.6,283.275H615.295a2.88,2.88,0,0,1,0-5.711H821.6a2.88,2.88,0,0,1,0,5.711Z" transform="translate(176.823 -83.234)"/>
  <path id="Path_73" data-name="Path 73" class="cls-5" d="M821.892,301.442H615.585a2.88,2.88,0,0,1,0-5.711H821.892a2.88,2.88,0,0,1,0,5.711Z" transform="translate(177.034 -69.993)"/>
  <path id="Path_74" data-name="Path 74" class="cls-5" d="M813.99,283.275H754.9a2.88,2.88,0,0,1,0-5.711H813.99a2.88,2.88,0,0,1,0,5.711Z" transform="translate(278.576 -83.234)"/>
  <path id="Path_75" data-name="Path 75" class="cls-5" d="M813.99,301.112H754.9a2.88,2.88,0,0,1,0-5.711H813.99a2.88,2.88,0,0,1,0,5.711Z" transform="translate(278.576 -70.233)"/>
  <path id="Path_76" data-name="Path 76" class="cls-5" d="M871.339,301.112H812.251a2.88,2.88,0,0,1,0-5.711h59.088a2.88,2.88,0,0,1,0,5.711Z" transform="translate(320.374 -70.233)"/>
  <path id="Path_77" data-name="Path 77" class="cls-5" d="M673.224,246.94H614.136a2.88,2.88,0,0,1,0-5.711h59.088a2.88,2.88,0,0,1,0,5.711Z" transform="translate(175.978 -109.717)"/>
  <path id="Path_78" data-name="Path 78" class="cls-5" d="M820.878,455.246H614.571a2.88,2.88,0,0,1,0-5.711H820.878a2.88,2.88,0,0,1,0,5.711Z" transform="translate(176.295 42.107)"/>
  <path id="Path_79" data-name="Path 79" class="cls-5" d="M820.3,491.581H613.992a2.88,2.88,0,0,1,0-5.711H820.3a2.88,2.88,0,0,1,0,5.711Z" transform="translate(175.873 68.59)"/>
  <path id="Path_80" data-name="Path 80" class="cls-5" d="M820.588,509.748H614.281a2.88,2.88,0,0,1,0-5.711H820.589a2.88,2.88,0,0,1,0,5.711Z" transform="translate(176.084 81.831)"/>
  <path id="Path_81" data-name="Path 81" class="cls-5" d="M809.5,491.911H750.412a2.88,2.88,0,0,1,0-5.711H809.5a2.88,2.88,0,0,1,0,5.711Z" transform="translate(275.303 68.831)"/>
  <path id="Path_82" data-name="Path 82" class="cls-5" d="M809.5,509.748H750.412a2.88,2.88,0,0,1,0-5.711H809.5a2.88,2.88,0,0,1,0,5.711Z" transform="translate(275.303 81.831)"/>
  <path id="Path_83" data-name="Path 83" class="cls-5" d="M866.849,491.911H807.761a2.88,2.88,0,0,1,0-5.711h59.088a2.88,2.88,0,0,1,0,5.711Z" transform="translate(317.102 68.831)"/>
  <path id="Path_84" data-name="Path 84" class="cls-5" d="M1001.327,473.413H676.844a2.88,2.88,0,0,1,0-5.711h324.483a2.88,2.88,0,0,1,0,5.711Z" transform="translate(221.683 55.349)"/>
  <path id="Path_85" data-name="Path 85" class="cls-5" d="M673.369,473.413H614.281a2.88,2.88,0,0,1,0-5.711h59.088a2.88,2.88,0,0,1,0,5.711Z" transform="translate(176.084 55.349)"/>
  <path id="Path_86" data-name="Path 86" class="cls-1" d="M581.742,163.221l-80.12,79.119,80.12,79.117,18.027-18.027L539.178,242.84l61.091-61.091Z" transform="translate(365.608 118.964)"/>
  <path id="Path_87" data-name="Path 87" class="cls-1" d="M624.131,163.221,704.25,242.34l-80.118,79.117L606.1,303.431l60.589-60.591L605.6,181.749Z" transform="translate(441.394 118.964)"/>
  <path id="Path_88" data-name="Path 88" class="cls-3" d="M581.742,163.221l-80.12,79.119,80.12,79.117,18.027-18.027L539.178,242.84l61.091-61.091Z" transform="translate(365.608 118.964)"/>
  <path id="Path_89" data-name="Path 89" class="cls-3" d="M624.131,163.221,704.25,242.34l-80.118,79.117L606.1,303.431l60.589-60.591L605.6,181.749Z" transform="translate(441.394 118.964)"/>
  <path id="Path_90" data-name="Path 90" class="cls-1" d="M633.483,746.609c24.929,33.386,76.678,36.9,76.678,36.9s11.33-50.615-13.6-84-76.678-36.9-76.678-36.9S608.553,713.223,633.483,746.609Z" transform="translate(180.12 197.405)"/>
  <path id="Path_91" data-name="Path 91" class="cls-1" d="M722.169,741.823c-16.45,22.03-50.6,24.349-50.6,24.349s-7.476-33.4,8.974-55.43,50.6-24.349,50.6-24.349S738.619,719.793,722.169,741.823Z" transform="translate(218.429 214.742)"/>
  <path id="Path_92" data-name="Path 92" class="cls-6" d="M167.222,462.734v86.66H142.461l-16.505-90.787Z" transform="translate(91.803 334.256)"/>
  <path id="Path_93" data-name="Path 93" class="cls-6" d="M53.842,462.734v86.66H29.083L12.576,458.607Z" transform="translate(9.166 334.256)"/>
  <path id="Path_94" data-name="Path 94" class="cls-6" d="M287.137,264.494s-39.788-28.6-44.761-14.92,29.841,38.544,29.841,38.544Z" transform="translate(-93.509 -106.335)"/>
  <path id="Path_95" data-name="Path 95" class="cls-7" d="M186.433,315.6c0,49.442,21.287,50.978,55.965,50.978s69.615-1.536,69.615-50.978-28.112-89.523-62.79-89.523S186.433,266.157,186.433,315.6Z" transform="translate(-133.928 -120.761)"/>
  <path id="Path_96" data-name="Path 96" class="cls-6" d="M260.334,278.9s-4.973,37.3,18.651,39.788-77.089,9.947-77.089,9.947,26.111-23.624,12.434-42.275S260.334,278.9,260.334,278.9Z" transform="translate(-122.659 -84.685)"/>
  <path id="Path_97" data-name="Path 97" class="cls-4" d="M328.124,662.983l8.7,73.359s43.518,53.465,16.164,49.735-44.761.793-44.761-4.18-.643-22.743-4.373-22.743-6.817,28.059-6.817,28.059-11.19-.847-12.434-2.09-2.487-72.4-2.487-72.4-3.73-21.137,3.73-31.084,6.217-18.651,6.217-18.651Z" transform="translate(-64.868 197.679)"/>
  <path id="Path_98" data-name="Path 98" class="cls-4" d="M213.55,662.517l8.7,73.359s43.518,53.465,16.164,49.735-44.761.793-44.761-4.18-.643-22.743-4.373-22.743-6.817,28.059-6.817,28.059-11.19-.847-12.434-2.09-2.487-72.4-2.487-72.4-3.73-21.137,3.73-31.084,6.217-18.651,6.217-18.651Z" transform="translate(-148.374 197.339)"/>
  <path id="Path_99" data-name="Path 99" class="cls-4" d="M348.172,410.548s39.788,113.147,42.275,138.014-2.487,109.416-2.487,109.416,36.058,146.085,28.6,147.329-49.005,7.138-50.249.922-5.676-15.842-4.433-19.572-3.73-17.407-3.73-24.867-17.434-46.616-16.191-52.833-21.137-98.226-24.867-105.686-13.677-59.682-13.677-59.682-55.952,152.934-57.195,156.664-6.217,9.947-3.73,11.19-3.73,9.947-3.73,9.947-12.884,51.589-12.884,54.076,2.487,30.634-2.487,31.877-55.775,1.164-58.262-7.54,26.385-109.5,26.385-109.5,21.137-63.412,14.92-79.576,6.217-113.147,11.19-120.607,6.217-52.221,6.217-52.221Z" transform="translate(-149.571 13.692)"/>
  <circle id="Ellipse_7" data-name="Ellipse 7" class="cls-6" cx="39.788" cy="39.788" r="39.788" transform="translate(76.129 135.157)"/>
  <path id="Path_100" data-name="Path 100" class="cls-3" d="M282.874,296.8s-44.761,1.243-47.248-2.487-64.655,8.7-64.655,33.571,36.058,121.85,36.058,121.85,13.677,69.629,9.947,77.089,138.014-16.164,134.284-28.6-24.867-39.788,2.487-63.412,38.544-48.491,38.544-48.491l-32.328-85.792s-32.328-4.974-39.788,0S282.874,296.8,282.874,296.8Z" transform="translate(-145.198 -71.5)"/>
  <path id="Path_101" data-name="Path 101" class="cls-3" d="M324.162,421.662l8.7-6.217s80.819-84.549,59.682-100.713S340.325,283.648,325.4,282.4s-27.354-12.434-27.354-12.434-16.164-28.6-28.6-9.947-26.111,24.867-8.7,31.084,28.6,3.73,37.3,9.947,42.275,16.164,27.354,19.894a133.449,133.449,0,0,0-24.867,8.7l-16.164,28.6Z" transform="translate(-85.773 -100.621)"/>
  <path id="Path_102" data-name="Path 102" class="cls-6" d="M223.692,472.4s32.328,47.248,8.7,44.761-34.814-34.814-34.814-34.814Z" transform="translate(-125.804 58.771)"/>
  <path id="Path_103" data-name="Path 103" class="cls-3" d="M185.033,309.862l-8.7,6.217s-28.6,156.664,0,197.7,31.084,38.544,31.084,38.544,4.973-3.73,7.46,21.137-1.243,34.814,6.217,34.814,41.031-7.46,38.544-13.677-18.651-42.275-19.894-50.978-7.46-28.6-9.947-39.788,11.19-17.407,4.974-41.031-14.92-65.9-14.92-74.6S185.033,309.862,185.033,309.862Z" transform="translate(-150.557 -59.694)"/>
  <path id="Path_104" data-name="Path 104" class="cls-7" d="M200.817,256.076c0,13.391,18.37,24.246,41.031,24.246s43.518,7.174,43.518-6.217-20.857-42.275-43.518-42.275S200.817,242.685,200.817,256.076Z" transform="translate(-123.445 -116.567)"/>
  <path id="Path_105" data-name="Path 105" class="cls-7" d="M284.811,282.712s1.675,45.074-43.116,42.587,6.053-38.528,6.053-38.528Z" transform="translate(-107.098 -79.482)"/>
  <rect id="Rectangle_35" data-name="Rectangle 35" class="cls-8" width="1215.219" height="3.874" transform="translate(0 980.914)"/>
</svg>
