<svg xmlns="http://www.w3.org/2000/svg" width="166.36" height="48" viewBox="0 0 166.36 48"><path d="M374.346,223.457H358.915A12.4,12.4,0,0,0,346.45,235.8v34.61a1.036,1.036,0,0,0,1.041,1.03h27.085a20.313,20.313,0,0,0,20.412-20.212V243.9a20.541,20.541,0,0,0-20.641-20.446Zm9.027,27.429a8.939,8.939,0,0,1-8.983,8.895H363.028l-9.19,4.263,4.384-6.644V235.914a1.036,1.036,0,0,1,1.041-1.03h15.591a8.478,8.478,0,0,1,8.519,8.438Zm28.53,20.546h-9.242a1.18,1.18,0,0,1-1.186-1.174V224.632a1.18,1.18,0,0,1,1.186-1.174H411.9a1.18,1.18,0,0,1,1.186,1.174v45.634a1.18,1.18,0,0,1-1.186,1.167Zm49.539-46.982v9.278a1.036,1.036,0,0,1-1.041,1.03h-13.02a1.036,1.036,0,0,0-1.041,1.028V270.41a1.023,1.023,0,0,1-.3.728,1.043,1.043,0,0,1-.735.3h-9.587a1.036,1.036,0,0,1-1.041-1.03V235.8a1.033,1.033,0,0,0-1.038-1.028h-13.02a1.035,1.035,0,0,1-1.041-1.03v-9.278a1.036,1.036,0,0,1,1.041-1.028H460.4a1.036,1.036,0,0,1,1.041,1.018Zm27.139-1h-.321a24.111,24.111,0,0,0-24.229,23.991v17.836a6.186,6.186,0,0,0,6.216,6.155H488.58a24.111,24.111,0,0,0,24.229-23.991h0a24.111,24.111,0,0,0-24.229-23.984Zm12.295,23.833a12.6,12.6,0,1,1-19.868-10.227,12.718,12.718,0,0,1,15.9,1.139l8.384-3.245-5.671,6.859a12.33,12.33,0,0,1,1.253,5.481Z" transform="translate(-346.45 -223.44)" fill="#ce1126"/></svg>