<?xml version="1.0" standalone="no"?>
<!DOCTYPE svg PUBLIC "-//W3C//DTD SVG 20010904//EN"
 "http://www.w3.org/TR/2001/REC-SVG-20010904/DTD/svg10.dtd">
<svg version="1.0" xmlns="http://www.w3.org/2000/svg"
 width="1435.000000pt" height="1435.000000pt" viewBox="0 0 1435.000000 1435.000000"
 preserveAspectRatio="xMidYMid meet">
<metadata>
Created by potrace 1.11, written by Peter Selinger 2001-2013
</metadata>
<g transform="translate(0.000000,1435.000000) scale(0.100000,-0.100000)"
fill="#000000" stroke="none">
<path d="M182 11678 c0 -1003 -2 -1193 -17 -1303 -2 -16 -6 -66 -10 -110 -3
-44 -8 -96 -10 -115 -4 -33 -8 -74 -20 -215 -3 -33 -7 -82 -9 -110 -2 -27 -7
-88 -11 -135 -3 -47 -8 -101 -10 -120 -2 -19 -7 -82 -10 -140 -4 -58 -8 -125
-10 -150 -3 -25 -7 -90 -10 -145 -4 -96 -11 -207 -20 -365 -3 -41 -7 -142 -10
-225 -4 -82 -8 -186 -10 -230 -27 -581 -27 -2060 0 -2685 2 -58 7 -168 10
-245 3 -77 8 -174 10 -215 2 -41 7 -133 10 -205 3 -71 8 -150 10 -175 2 -25 7
-94 10 -155 3 -60 8 -137 10 -170 14 -200 17 -243 20 -275 2 -19 7 -82 10
-140 4 -58 8 -112 10 -120 2 -8 6 -60 10 -115 3 -55 8 -111 10 -125 2 -14 7
-65 10 -114 4 -49 9 -98 12 -110 3 -11 7 -442 9 -956 1 -514 3 -940 3 -945 1
-7 34 -10 84 -10 l82 0 5 880 c3 484 8 889 12 900 3 11 9 52 12 90 4 39 9 86
11 105 4 31 7 61 20 190 1 19 6 69 10 110 3 41 8 86 10 100 2 14 6 66 10 115
3 50 8 108 10 130 4 37 7 72 20 235 3 36 7 92 10 125 3 33 7 98 10 145 3 47 7
117 10 155 2 39 7 115 10 170 3 55 8 132 10 170 6 104 16 317 20 425 2 52 7
192 12 310 10 277 10 1648 0 1935 -5 121 -10 267 -12 325 -2 58 -6 152 -10
210 -3 58 -8 148 -10 200 -2 52 -7 127 -9 165 -3 39 -8 115 -12 170 -3 55 -7
120 -9 145 -2 25 -7 79 -10 120 -3 41 -7 100 -10 130 -3 30 -7 89 -10 130 -3
41 -8 95 -10 120 -3 25 -7 74 -10 110 -4 36 -8 81 -10 100 -2 19 -6 64 -10
100 -6 68 -12 128 -19 195 -3 22 -8 69 -11 105 -4 36 -9 72 -10 81 -14 74 -18
327 -18 1362 l0 1187 -87 0 -87 0 -1 -1122z"/>
<path d="M819 12798 c-1 -2 -3 -633 -4 -1403 -2 -770 -5 -1409 -8 -1420 -2
-11 -8 -54 -12 -95 -3 -41 -8 -86 -10 -100 -4 -25 -14 -123 -20 -190 -5 -61
-15 -154 -20 -185 -3 -16 -7 -59 -10 -95 -3 -36 -8 -87 -10 -115 -9 -86 -14
-147 -20 -220 -8 -99 -15 -173 -20 -220 -2 -22 -7 -85 -10 -140 -4 -55 -8
-111 -10 -125 -2 -14 -7 -74 -10 -135 -3 -60 -8 -130 -10 -155 -8 -98 -18
-275 -30 -525 -3 -60 -7 -155 -10 -210 -20 -426 -26 -1453 -11 -1840 13 -341
15 -389 20 -470 4 -44 8 -125 11 -180 3 -55 8 -122 10 -150 3 -27 7 -84 10
-125 3 -41 7 -102 10 -135 11 -111 14 -150 20 -215 3 -36 8 -81 10 -100 2 -19
7 -60 10 -90 3 -30 8 -71 10 -90 2 -19 7 -60 10 -90 4 -30 8 -66 10 -80 2 -14
7 -50 10 -80 6 -49 43 -313 63 -445 4 -27 7 -447 7 -932 0 -581 3 -884 10
-886 5 -2 44 -3 85 -3 l75 1 5 870 c3 479 8 879 12 891 3 12 9 45 13 75 10 77
14 114 20 157 3 20 7 62 11 92 3 30 7 66 9 80 2 14 6 54 10 90 4 36 8 76 10
90 2 14 7 59 10 100 4 41 8 82 10 90 2 8 6 53 9 100 4 47 9 101 11 120 4 32 9
93 20 240 3 30 7 82 10 115 3 33 7 96 10 140 3 44 7 116 10 160 3 44 7 112 10
150 4 62 12 241 20 420 17 392 22 1106 11 1585 -8 314 -10 369 -21 600 -14
299 -24 469 -30 550 -3 30 -7 96 -10 145 -3 50 -8 110 -10 135 -2 25 -7 79
-10 120 -3 41 -8 95 -10 120 -2 25 -7 79 -10 120 -6 76 -13 147 -20 210 -2 19
-7 67 -10 105 -3 39 -8 86 -10 105 -2 19 -7 62 -10 95 -3 33 -8 74 -10 90 -5
38 -12 102 -20 180 -4 33 -11 87 -16 121 -5 34 -9 688 -9 1522 l-1 1462 -84 0
c-47 0 -86 -1 -86 -2z"/>
<path d="M1451 11153 c0 -907 -2 -1657 -5 -1668 -2 -11 -7 -47 -10 -80 -3 -33
-8 -76 -11 -95 -11 -84 -15 -119 -20 -175 -3 -33 -8 -71 -10 -85 -2 -14 -6
-54 -10 -90 -4 -36 -8 -76 -10 -90 -2 -14 -6 -54 -10 -90 -3 -36 -8 -81 -10
-100 -2 -19 -7 -69 -10 -110 -3 -41 -8 -91 -10 -110 -2 -19 -7 -69 -10 -110
-3 -41 -8 -95 -10 -120 -2 -25 -6 -81 -9 -125 -4 -44 -8 -105 -11 -135 -2 -30
-7 -104 -11 -165 -4 -60 -8 -126 -9 -145 -2 -38 -16 -294 -21 -405 -24 -531
-24 -1625 1 -1975 2 -36 7 -114 10 -175 10 -184 15 -267 20 -325 2 -30 7 -93
10 -140 3 -47 8 -107 10 -135 3 -27 7 -79 10 -115 3 -36 8 -81 10 -100 2 -19
7 -62 10 -95 3 -33 7 -76 9 -95 3 -19 7 -62 11 -95 3 -33 8 -71 10 -85 2 -14
6 -52 10 -85 3 -33 8 -71 10 -85 2 -14 15 -110 29 -215 26 -188 29 -211 42
-270 4 -16 7 -408 8 -870 l1 -839 85 -1 85 0 1 885 c1 487 4 901 8 920 3 19 7
44 10 55 2 11 7 42 10 69 4 27 9 52 10 55 2 3 7 33 11 66 11 92 13 101 19 132
3 15 8 48 11 73 3 25 10 77 15 115 11 83 17 133 25 200 3 28 8 66 10 85 2 19
7 62 10 95 4 33 8 71 10 85 2 14 7 61 10 105 3 44 8 96 10 115 2 19 7 78 10
130 4 52 8 111 10 130 2 19 6 94 10 165 4 72 9 150 10 175 35 517 20 1652 -30
2340 -3 36 -7 103 -10 150 -4 47 -8 105 -10 130 -2 25 -7 81 -10 125 -3 44 -8
96 -10 115 -2 19 -7 73 -10 120 -4 47 -8 92 -10 100 -2 8 -6 53 -10 100 -4 47
-9 94 -11 105 -2 11 -6 54 -9 95 -3 41 -7 82 -9 90 -3 8 -7 47 -11 85 -3 39
-8 81 -10 95 -2 14 -7 50 -10 80 -3 30 -7 66 -9 80 -2 14 -8 57 -12 95 -4 39
-8 72 -9 75 -1 3 -5 34 -9 70 -4 36 -10 74 -12 85 -2 11 -4 793 -4 1738 l0
1717 -90 0 -89 0 0 -1647z"/>
<path d="M2123 10928 c0 -1635 -3 -1970 -18 -2047 -1 -9 -6 -50 -10 -91 -3
-41 -8 -86 -10 -100 -2 -14 -6 -61 -10 -105 -3 -44 -8 -91 -10 -105 -2 -14 -7
-61 -10 -105 -4 -44 -9 -93 -11 -110 -1 -16 -5 -66 -8 -110 -4 -44 -8 -100
-11 -125 -3 -25 -7 -79 -10 -120 -3 -41 -8 -100 -10 -130 -7 -96 -15 -212 -21
-305 -3 -49 -7 -115 -9 -145 -2 -30 -6 -120 -10 -200 -3 -80 -8 -165 -10 -190
-26 -285 -25 -1629 0 -2045 2 -33 7 -109 10 -170 3 -60 8 -128 10 -150 2 -22
7 -78 10 -125 7 -101 14 -190 20 -245 2 -22 7 -71 11 -110 3 -38 8 -79 10 -89
2 -11 6 -49 9 -85 3 -36 7 -77 9 -91 2 -14 7 -52 11 -85 3 -33 13 -107 21
-165 8 -58 17 -121 20 -140 2 -20 7 -47 11 -60 3 -14 7 -427 8 -918 1 -491 5
-896 9 -900 4 -4 43 -7 87 -7 l79 0 1 40 c0 22 0 405 0 850 0 508 4 827 11
855 5 25 11 56 13 70 2 14 10 63 19 110 9 47 18 99 20 115 2 17 8 50 12 75 4
25 8 55 10 67 1 13 5 40 8 60 3 21 8 56 10 78 10 76 15 120 21 175 4 30 8 66
10 80 5 36 15 147 29 330 4 41 9 106 12 145 3 38 7 108 9 155 2 47 7 157 12
245 15 330 8 1300 -12 1700 -16 317 -23 436 -30 550 -5 75 -8 115 -20 270 -3
33 -7 96 -10 140 -4 44 -8 100 -10 125 -2 25 -7 77 -10 115 -3 39 -7 90 -10
115 -9 92 -15 147 -20 210 -3 36 -8 81 -10 100 -2 19 -6 60 -9 90 -3 30 -8 80
-11 110 -8 80 -16 152 -20 180 -16 105 -19 401 -19 2133 l-1 1957 -86 0 -86 0
0 -1872z"/>
<path d="M2769 10643 c-1 -1187 -3 -2167 -4 -2178 -1 -11 -6 -49 -10 -85 -4
-36 -8 -72 -10 -80 -1 -8 -6 -46 -10 -83 -3 -37 -8 -76 -10 -85 -1 -9 -6 -51
-10 -92 -3 -41 -8 -86 -10 -100 -2 -14 -6 -54 -10 -90 -3 -36 -8 -81 -10 -100
-2 -19 -6 -64 -10 -100 -3 -36 -8 -85 -10 -110 -3 -25 -7 -74 -10 -110 -3 -36
-7 -91 -10 -123 -9 -108 -14 -172 -20 -267 -3 -52 -8 -115 -10 -140 -2 -25 -7
-108 -10 -185 -4 -77 -8 -156 -10 -176 -25 -249 -25 -1472 0 -1776 2 -23 6
-88 10 -145 3 -57 8 -121 10 -143 2 -22 7 -78 10 -125 8 -99 10 -124 20 -205
10 -90 13 -115 20 -180 4 -33 18 -139 31 -235 14 -96 28 -193 31 -215 3 -22
13 -80 23 -130 16 -82 17 -165 16 -957 -1 -763 1 -867 14 -870 8 -2 48 -4 89
-3 l74 0 -1 845 c0 524 4 862 10 890 5 25 11 54 14 65 7 39 24 120 30 145 7
32 18 97 30 170 2 14 6 35 9 47 3 12 7 44 10 70 3 27 7 59 10 72 2 13 7 49 10
80 4 31 8 67 10 81 2 14 7 57 11 95 3 39 8 84 9 100 3 29 15 192 20 270 28
448 24 1156 -9 1830 -6 125 -8 154 -22 345 -3 47 -7 118 -9 158 -2 41 -6 97
-9 125 -3 29 -8 93 -11 142 -4 50 -8 110 -10 135 -4 52 -14 168 -20 255 -3 33
-7 85 -10 115 -20 228 -25 284 -30 340 -3 25 -7 80 -11 122 -3 43 -7 90 -9
105 -16 133 -19 493 -19 2431 l-1 2212 -87 0 -88 0 -1 -2157z"/>
<path d="M3422 10403 c0 -1319 -3 -2414 -6 -2433 -4 -19 -9 -42 -11 -50 -2 -8
-6 -35 -9 -60 -3 -25 -8 -54 -10 -65 -4 -20 -14 -88 -21 -135 -2 -14 -13 -86
-24 -160 -11 -74 -23 -164 -27 -200 -4 -36 -8 -67 -9 -70 -3 -13 -23 -178 -30
-250 -2 -25 -7 -63 -9 -85 -3 -22 -8 -67 -11 -100 -3 -33 -8 -79 -11 -102 -3
-24 -7 -71 -9 -105 -3 -35 -7 -81 -9 -103 -3 -22 -8 -85 -12 -140 -3 -55 -7
-120 -9 -145 -27 -349 -27 -1313 0 -1565 2 -22 7 -80 10 -130 3 -49 7 -101 9
-115 3 -14 7 -54 11 -90 3 -36 8 -78 10 -95 3 -16 11 -82 20 -145 8 -63 17
-126 20 -140 2 -14 11 -63 19 -110 21 -118 62 -317 89 -430 l22 -95 0 -863 c0
-474 2 -863 5 -863 3 -1 41 -2 85 -3 l80 -2 5 881 c3 484 8 889 12 900 3 11 9
52 13 90 4 39 9 78 10 87 2 9 6 45 10 80 3 35 8 79 10 98 2 19 7 64 10 100 3
36 8 81 10 100 2 19 7 73 11 120 4 47 8 99 9 115 2 17 6 79 10 139 4 59 8 117
10 127 2 10 7 85 10 166 4 81 8 168 10 193 21 322 22 1196 0 1615 -17 351 -16
333 -30 508 -11 155 -15 202 -20 247 -2 25 -7 72 -10 105 -11 126 -26 281 -30
305 -2 14 -7 54 -10 90 -4 36 -9 72 -10 80 -16 83 -18 478 -19 2628 l-1 2472
-86 0 -86 0 -1 -2397z"/>
<path d="M4060 10228 c0 -1558 -4 -2587 -9 -2608 -6 -19 -12 -51 -15 -70 -3
-19 -10 -57 -15 -85 -6 -27 -13 -66 -15 -85 -3 -19 -12 -73 -20 -120 -8 -47
-17 -105 -21 -130 -3 -25 -10 -67 -15 -95 -8 -43 -19 -120 -35 -240 -24 -182
-33 -259 -40 -335 -3 -25 -7 -65 -10 -90 -12 -110 -20 -203 -30 -350 -3 -47
-8 -103 -10 -125 -23 -204 -23 -1043 0 -1245 2 -19 6 -77 10 -128 3 -51 8
-100 9 -110 2 -9 7 -48 11 -86 4 -38 8 -79 10 -90 4 -28 14 -102 20 -151 3
-22 13 -80 21 -130 9 -49 18 -103 21 -120 10 -66 66 -314 99 -438 l35 -132 2
-855 2 -855 85 0 85 0 1 860 1 860 31 90 c27 81 73 253 87 330 21 111 35 190
40 227 3 24 8 54 10 68 6 39 14 100 20 160 3 30 8 75 11 100 6 60 12 143 19
270 4 58 8 137 10 175 6 88 6 783 1 890 -2 44 -7 145 -11 225 -8 165 -10 207
-20 340 -3 52 -8 118 -10 145 -5 72 -15 193 -20 240 -2 22 -7 72 -10 110 -3
39 -8 86 -10 105 -2 19 -7 67 -11 105 -3 39 -8 78 -10 87 -1 9 -5 48 -9 85 -3
37 -8 79 -10 93 -3 14 -7 48 -11 75 -3 28 -7 61 -9 75 -2 14 -7 50 -10 80 -3
30 -8 66 -10 80 -2 14 -13 93 -25 175 -11 83 -22 157 -25 165 -16 59 -18 383
-19 2573 l-1 2457 -87 0 -88 0 0 -2572z"/>
<path d="M4729 10658 c-1 -1179 -2 -2156 -4 -2173 -1 -16 -5 -52 -9 -80 -7
-59 -12 -107 -21 -195 -3 -36 -8 -81 -10 -100 -2 -19 -7 -71 -10 -115 -3 -44
-8 -91 -10 -105 -2 -14 -7 -61 -10 -105 -4 -44 -8 -96 -10 -115 -2 -19 -6 -75
-10 -125 -4 -49 -8 -106 -10 -125 -2 -19 -6 -75 -10 -125 -6 -90 -8 -118 -20
-315 -3 -58 -8 -123 -10 -145 -2 -22 -7 -103 -10 -180 -4 -77 -8 -174 -10
-215 -31 -590 -20 -1654 20 -2055 2 -22 7 -79 10 -126 3 -47 7 -96 9 -110 3
-13 7 -55 11 -94 9 -100 16 -156 20 -185 2 -14 9 -63 15 -110 16 -117 19 -144
35 -240 7 -45 37 -215 40 -230 2 -8 4 -402 4 -875 l1 -860 83 1 c45 1 84 2 87
3 3 0 5 389 5 864 0 474 3 887 7 917 4 30 10 82 14 115 3 33 7 67 9 75 3 16
16 145 20 195 2 17 5 53 9 80 3 28 8 75 11 105 3 30 7 75 10 100 13 132 40
449 50 600 3 47 8 110 10 140 2 30 7 111 10 180 3 69 8 148 10 175 27 338 27
1688 0 2055 -3 30 -7 101 -10 158 -5 99 -10 178 -20 292 -3 30 -7 84 -10 120
-3 36 -7 85 -10 110 -5 46 -11 111 -20 215 -3 33 -7 71 -10 85 -2 14 -7 52
-10 85 -3 33 -8 71 -10 85 -2 14 -7 50 -10 80 -7 62 -14 113 -20 150 -3 14 -7
48 -11 75 -3 28 -9 71 -14 97 -4 26 -7 955 -7 2065 l0 2018 -86 3 -87 3 -1
-2143z"/>
<path d="M5350 12758 c-1 -24 -2 -824 -4 -1778 -1 -954 -5 -1746 -8 -1760 -4
-14 -9 -52 -13 -85 -3 -33 -8 -73 -10 -90 -2 -16 -7 -59 -10 -95 -3 -36 -8
-83 -10 -105 -12 -108 -17 -163 -20 -200 -11 -133 -17 -193 -20 -215 -2 -14
-6 -65 -10 -115 -3 -49 -8 -108 -10 -130 -3 -22 -7 -74 -10 -115 -3 -41 -8
-97 -10 -125 -5 -53 -13 -162 -20 -285 -3 -41 -7 -106 -10 -145 -2 -38 -7
-119 -10 -180 -3 -60 -8 -150 -10 -200 -33 -597 -38 -1681 -10 -2120 1 -27 6
-106 9 -175 4 -69 9 -145 11 -170 2 -25 7 -81 10 -125 3 -44 8 -107 11 -140 3
-33 7 -78 9 -100 4 -47 13 -135 21 -185 2 -19 7 -60 9 -90 4 -50 20 -175 30
-240 2 -14 7 -45 10 -70 17 -125 38 -256 55 -354 19 -103 20 -158 20 -961 l0
-851 87 1 86 0 3 915 c1 503 5 929 8 945 5 32 15 133 31 335 3 41 8 93 10 115
2 22 7 78 10 125 3 47 8 110 10 140 3 30 7 89 10 130 2 41 7 107 10 145 7 103
14 217 20 330 3 55 7 132 9 170 29 500 40 955 40 1650 0 578 -6 977 -19 1170
-3 39 -7 126 -10 195 -12 266 -18 365 -40 645 -2 33 -7 98 -10 145 -4 47 -8
101 -10 120 -2 19 -7 72 -10 117 -3 46 -8 92 -10 104 -2 11 -7 56 -10 100 -3
43 -8 87 -9 96 -2 10 -7 56 -11 103 -4 47 -10 90 -14 95 -3 6 -7 759 -8 1675
-1 916 -2 1668 -2 1673 -1 4 -39 7 -86 7 l-85 0 0 -42z"/>
<path d="M5994 11473 c0 -1178 -3 -1381 -19 -1483 -3 -14 -7 -47 -9 -75 -3
-27 -7 -66 -10 -85 -3 -19 -8 -57 -11 -85 -5 -50 -13 -112 -20 -170 -2 -16 -6
-59 -10 -95 -3 -36 -8 -81 -10 -100 -4 -35 -9 -84 -20 -190 -3 -30 -8 -75 -10
-100 -5 -43 -9 -81 -21 -215 -2 -33 -7 -73 -9 -90 -2 -16 -7 -73 -11 -125 -3
-52 -8 -103 -10 -113 -1 -10 -6 -59 -9 -110 -4 -51 -8 -108 -10 -127 -2 -19
-6 -82 -10 -140 -4 -58 -8 -120 -10 -138 -2 -18 -7 -83 -10 -145 -3 -62 -8
-136 -10 -166 -3 -30 -7 -118 -11 -195 -3 -78 -7 -163 -9 -191 -12 -190 -20
-608 -20 -1070 1 -602 7 -817 40 -1315 3 -41 7 -93 9 -115 3 -22 8 -76 11
-120 4 -44 8 -93 10 -110 7 -77 16 -163 20 -190 2 -17 8 -76 15 -132 6 -56 12
-110 14 -120 2 -10 7 -44 11 -77 3 -32 8 -68 10 -80 2 -11 6 -38 9 -58 3 -21
9 -55 12 -75 4 -21 8 -47 9 -58 1 -11 5 -36 8 -55 8 -38 14 -75 23 -130 3 -19
21 -114 41 -210 l35 -175 0 -842 c1 -767 2 -842 17 -845 9 -2 48 -4 86 -4 l70
1 1 900 c1 495 4 923 8 950 3 28 8 74 11 103 3 28 7 73 10 100 2 26 7 70 9 97
3 28 8 79 11 115 9 88 14 144 20 215 5 63 13 149 20 225 3 25 7 79 10 120 4
41 8 95 10 120 2 25 6 83 10 130 3 47 8 110 10 140 3 30 8 92 10 138 2 45 7
115 9 155 8 98 14 202 21 327 3 58 8 141 10 185 3 44 7 145 10 225 4 80 8 181
10 225 25 508 25 1834 0 2225 -2 30 -6 123 -10 205 -4 83 -8 168 -10 190 -2
22 -6 92 -10 155 -3 63 -8 133 -10 155 -3 22 -7 72 -9 111 -3 40 -7 91 -10
115 -3 24 -8 78 -11 119 -3 41 -7 89 -10 105 -3 17 -7 55 -10 85 -2 30 -7 75
-9 100 -3 25 -8 72 -12 105 -3 33 -8 69 -10 80 -2 11 -6 44 -9 73 -3 29 -8 70
-11 90 -2 20 -7 51 -9 67 -15 117 -26 194 -29 211 -3 16 -8 45 -21 139 -2 11
-4 566 -4 1233 l-1 1212 -88 0 -87 0 -1 -1327z"/>
<path d="M6639 11873 c0 -511 -2 -935 -3 -943 -2 -8 -7 -62 -10 -119 -4 -57
-9 -111 -11 -120 -1 -9 -6 -61 -10 -116 -3 -55 -8 -113 -10 -130 -2 -16 -7
-70 -10 -120 -4 -49 -8 -112 -10 -140 -5 -65 -15 -195 -20 -270 -19 -271 -22
-326 -30 -454 -3 -52 -7 -127 -10 -165 -4 -65 -7 -130 -20 -366 -2 -47 -7
-148 -11 -225 -3 -77 -7 -171 -9 -210 -2 -38 -7 -160 -10 -270 -4 -110 -8
-236 -10 -280 -7 -182 -18 -939 -18 -1195 0 -270 11 -947 18 -1105 2 -44 6
-161 10 -260 3 -99 8 -211 10 -250 2 -38 7 -115 10 -170 6 -119 14 -239 20
-315 3 -30 7 -95 10 -145 3 -49 7 -110 10 -135 2 -25 7 -79 10 -120 8 -105 15
-179 20 -220 2 -19 7 -64 10 -100 7 -77 14 -151 20 -200 2 -19 7 -60 10 -90 4
-30 8 -68 10 -85 2 -16 7 -57 10 -90 4 -33 9 -69 12 -80 2 -11 4 -426 4 -922
0 -684 3 -902 12 -905 7 -2 46 -4 87 -4 l75 1 2 845 c1 465 4 859 6 875 5 30
12 95 22 215 3 36 8 81 10 100 2 19 6 73 10 120 3 47 8 101 10 120 2 19 7 73
10 120 3 47 8 101 10 120 2 19 7 78 10 130 3 52 8 115 10 140 3 25 7 86 10
135 5 85 9 141 20 307 6 93 14 225 20 353 3 55 7 143 10 195 2 52 7 154 10
225 3 72 7 173 10 225 2 52 7 194 10 315 3 121 8 290 11 375 5 193 6 1478 0
1695 -2 88 -7 246 -10 350 -14 409 -18 506 -32 760 -3 61 -7 144 -9 185 -2 41
-6 113 -9 160 -3 47 -8 126 -11 175 -3 50 -7 119 -10 155 -7 83 -13 167 -20
255 -3 39 -8 97 -10 130 -3 33 -7 87 -10 120 -2 33 -7 89 -10 125 -4 36 -8 83
-10 105 -10 116 -16 183 -20 210 -2 17 -7 64 -10 105 -4 41 -10 100 -14 130
-3 30 -6 418 -6 863 l0 807 -87 0 -88 0 -1 -927z"/>
<path d="M7285 12008 c0 -436 -3 -816 -6 -844 -4 -28 -10 -89 -14 -135 -4 -46
-9 -91 -10 -99 -2 -9 -6 -49 -9 -91 -3 -41 -8 -83 -10 -94 -2 -11 -7 -60 -11
-110 -3 -49 -8 -106 -10 -125 -2 -19 -7 -71 -10 -115 -4 -44 -8 -100 -10 -125
-7 -82 -15 -184 -20 -265 -16 -236 -21 -323 -30 -505 -3 -58 -7 -141 -10 -185
-4 -76 -14 -310 -20 -495 -29 -840 -21 -2133 20 -3105 14 -332 24 -562 30
-655 3 -41 7 -120 10 -175 9 -174 17 -312 31 -525 2 -36 6 -103 9 -150 2 -47
7 -112 10 -145 2 -33 7 -100 10 -150 4 -49 8 -112 10 -140 2 -27 7 -86 10
-130 5 -84 13 -168 22 -251 3 -27 7 -452 10 -944 l4 -896 87 1 87 0 1 885 c0
761 4 969 19 1050 2 8 6 44 10 80 3 36 8 72 10 80 2 8 7 53 10 100 4 47 9 92
10 101 2 9 6 53 10 98 3 44 8 89 9 98 2 10 7 54 10 98 4 44 9 103 11 130 12
135 15 176 20 245 3 41 7 109 10 150 2 41 7 109 9 150 3 41 7 118 10 170 3 52
8 142 11 200 23 409 30 805 30 1585 -1 856 -9 1266 -40 1885 -3 47 -7 141 -10
210 -8 191 -20 406 -30 555 -2 33 -7 105 -10 160 -3 55 -8 125 -10 155 -2 30
-6 98 -10 150 -3 52 -8 113 -10 135 -2 22 -7 85 -10 140 -4 55 -8 111 -10 125
-2 14 -7 75 -10 135 -4 61 -9 118 -11 129 -2 10 -6 57 -9 105 -3 47 -7 102
-10 121 -15 122 -17 300 -18 1113 l0 907 -86 0 -86 0 0 -792z"/>
<path d="M7929 12788 c0 -7 -1 -564 -3 -1238 -1 -674 -5 -1234 -8 -1245 -5
-18 -14 -69 -23 -135 -20 -144 -31 -225 -40 -300 -3 -25 -8 -61 -10 -80 -3
-19 -7 -60 -10 -90 -3 -30 -8 -71 -10 -90 -2 -19 -7 -57 -10 -85 -2 -27 -7
-68 -9 -90 -3 -22 -7 -71 -11 -110 -3 -38 -8 -90 -11 -115 -2 -25 -7 -83 -10
-130 -3 -47 -7 -96 -9 -109 -2 -13 -7 -78 -11 -145 -3 -67 -7 -139 -9 -161 -2
-22 -6 -98 -10 -170 -4 -71 -8 -159 -10 -195 -20 -359 -27 -1521 -12 -1990 11
-334 25 -675 32 -775 2 -33 7 -112 10 -175 3 -63 7 -142 10 -175 2 -33 7 -103
10 -155 9 -141 23 -339 30 -420 2 -19 6 -80 10 -135 3 -55 8 -111 10 -125 2
-14 6 -65 10 -115 3 -49 8 -101 10 -115 2 -14 6 -65 10 -114 4 -50 8 -97 10
-105 1 -9 6 -55 9 -103 4 -48 9 -98 11 -110 2 -13 6 -54 10 -93 4 -38 8 -86
10 -105 2 -19 7 -66 10 -105 4 -38 10 -88 14 -110 4 -22 7 -417 6 -877 0 -558
3 -839 10 -841 5 -2 44 -3 85 -2 l75 1 2 874 2 875 26 135 c14 74 32 169 40
210 8 41 17 93 20 115 2 22 7 49 9 60 2 11 9 56 16 100 6 44 13 91 15 105 4
28 12 89 20 153 3 23 8 53 10 67 2 14 7 52 10 85 8 82 13 131 20 189 3 27 8
72 10 100 3 28 7 74 10 101 2 28 7 86 10 130 3 44 7 103 10 130 4 45 7 92 20
340 25 456 25 1420 0 1975 -6 135 -15 313 -20 390 -3 41 -7 113 -10 160 -6 98
-13 206 -20 300 -3 36 -8 94 -10 130 -17 216 -26 334 -31 375 -1 17 -6 62 -9
100 -6 77 -13 152 -20 205 -2 19 -7 67 -10 105 -3 39 -8 86 -10 105 -4 33 -8
73 -21 208 -3 31 -7 68 -9 82 -3 14 -7 56 -11 95 -3 38 -7 76 -9 85 -2 8 -6
47 -10 85 -4 39 -9 78 -11 87 -1 9 -6 48 -10 85 -3 37 -12 108 -19 158 -9 67
-12 426 -12 1415 l0 1325 -87 3 c-65 2 -86 0 -87 -10z"/>
<path d="M8579 12798 c0 -2 -2 -750 -4 -1663 -2 -913 -5 -1673 -8 -1690 -12
-72 -30 -240 -52 -477 -5 -59 -10 -121 -20 -238 -3 -36 -7 -90 -10 -120 -3
-30 -7 -91 -10 -135 -3 -44 -7 -118 -10 -165 -3 -47 -8 -114 -10 -150 -3 -36
-7 -119 -10 -185 -3 -66 -8 -154 -10 -195 -14 -256 -19 -590 -19 -1225 0 -635
3 -885 19 -1245 2 -52 6 -158 10 -235 3 -77 7 -167 10 -200 2 -33 7 -114 10
-180 3 -66 8 -145 10 -175 2 -30 7 -93 10 -140 3 -47 8 -112 10 -145 3 -33 7
-94 10 -135 8 -122 15 -212 20 -260 2 -25 7 -79 10 -120 4 -41 8 -91 11 -110
2 -19 6 -69 9 -110 3 -41 7 -88 10 -105 15 -122 18 -286 19 -1015 l1 -825 85
0 85 0 1 880 c1 751 4 892 17 965 18 96 26 149 33 200 2 19 6 44 8 55 3 11 8
45 11 75 3 30 7 66 10 80 2 14 7 43 9 65 3 22 8 58 10 80 9 71 25 208 31 275
3 36 8 81 10 100 2 19 7 73 10 120 4 47 8 101 10 120 4 37 11 154 20 305 3 50
7 124 10 165 33 563 20 1633 -30 2430 -2 41 -7 116 -10 165 -3 50 -8 110 -10
135 -2 25 -7 90 -10 145 -3 55 -8 118 -10 140 -3 22 -7 72 -10 110 -12 151
-16 202 -20 240 -3 22 -7 69 -10 105 -3 36 -10 108 -15 160 -5 52 -12 120 -15
150 -6 66 -24 241 -30 290 -2 19 -7 62 -10 95 -3 33 -8 69 -10 80 -2 11 -4
806 -4 1768 l-1 1747 -85 0 c-47 0 -85 -1 -86 -2z"/>
<path d="M9195 10783 l0 -2016 -22 -151 c-12 -83 -25 -178 -28 -211 -4 -33 -9
-69 -11 -79 -2 -11 -6 -44 -9 -75 -4 -52 -10 -102 -20 -191 -3 -19 -7 -60 -10
-90 -3 -30 -8 -75 -10 -100 -3 -25 -7 -74 -10 -110 -8 -108 -15 -202 -20 -250
-2 -25 -7 -90 -10 -145 -3 -55 -8 -131 -10 -170 -5 -81 -15 -305 -21 -485 -5
-150 -5 -1017 1 -1145 1 -49 6 -166 10 -260 3 -93 8 -206 10 -250 8 -140 15
-258 20 -325 3 -36 7 -101 10 -145 3 -44 8 -102 10 -130 3 -27 7 -84 10 -125
3 -41 7 -100 10 -130 3 -30 7 -77 9 -105 10 -101 17 -181 21 -205 2 -14 6 -59
10 -100 4 -41 8 -86 10 -100 2 -14 6 -54 10 -90 4 -36 9 -78 11 -95 2 -16 6
-55 9 -85 4 -30 11 -82 16 -115 5 -33 9 -440 9 -905 l0 -845 85 0 c50 0 86 4
86 10 1 5 3 404 4 885 2 775 4 885 19 965 9 50 19 105 22 124 2 19 6 47 9 63
8 46 13 80 20 138 4 30 9 62 10 70 2 8 6 44 10 80 3 36 8 76 10 90 2 14 6 54
10 90 3 36 8 81 10 100 20 185 37 464 51 825 5 144 5 996 -1 1110 -2 44 -6
161 -10 260 -6 181 -9 231 -20 425 -3 58 -8 139 -10 180 -2 41 -6 104 -9 140
-3 36 -8 101 -11 145 -3 44 -7 105 -10 135 -3 30 -7 87 -10 126 -3 40 -7 91
-9 115 -3 24 -8 80 -11 124 -3 44 -8 96 -10 115 -2 19 -7 69 -10 110 -3 41 -7
86 -10 100 -2 14 -7 61 -10 105 -3 44 -8 87 -10 95 -2 8 -7 51 -10 94 -4 43
-9 88 -11 100 -3 12 -5 990 -5 2174 l-1 2152 -86 0 -87 0 0 -2017z"/>
<path d="M9864 10353 c0 -1347 -4 -2470 -8 -2498 -4 -27 -9 -61 -11 -75 -3
-14 -7 -43 -11 -65 -3 -22 -11 -80 -19 -130 -7 -49 -17 -114 -20 -144 -4 -30
-8 -61 -10 -70 -1 -9 -6 -45 -10 -81 -4 -36 -8 -72 -10 -80 -1 -8 -6 -42 -9
-75 -4 -33 -11 -94 -16 -135 -5 -41 -12 -100 -15 -130 -3 -30 -7 -75 -10 -100
-3 -25 -7 -67 -9 -95 -7 -75 -16 -174 -21 -225 -2 -25 -7 -85 -11 -135 -3 -49
-7 -110 -9 -135 -23 -305 -38 -707 -38 -1035 0 -241 9 -603 18 -675 2 -19 6
-77 10 -128 3 -51 8 -100 9 -110 2 -9 7 -48 10 -87 4 -38 8 -81 10 -95 3 -14
7 -47 11 -75 5 -43 12 -85 42 -245 12 -66 44 -200 52 -224 6 -14 9 -26 6 -26
-2 0 14 -52 35 -115 l40 -115 0 -848 0 -848 83 2 c45 1 84 2 87 3 3 0 6 394 6
873 l1 873 32 120 c18 66 35 134 37 150 3 17 11 55 19 85 14 56 41 192 49 245
2 17 11 73 19 125 22 137 26 160 33 225 3 32 7 67 10 78 2 11 6 60 10 110 3
50 7 98 9 107 2 10 6 69 10 131 4 63 9 139 10 169 5 77 5 708 1 810 -4 90 -14
252 -21 335 -2 28 -7 93 -10 145 -4 52 -9 102 -10 111 -2 8 -6 53 -10 100 -4
46 -8 91 -10 99 -2 8 -6 44 -10 80 -3 36 -8 76 -10 90 -2 14 -11 84 -20 155
-9 72 -20 155 -25 185 -8 46 -49 303 -67 415 -2 17 -16 91 -30 165 l-25 135 0
2563 -1 2562 -86 0 -86 0 -1 -2447z"/>
<path d="M10503 10327 c0 -1359 -3 -2490 -6 -2512 -4 -22 -9 -65 -12 -95 -4
-30 -8 -66 -10 -80 -2 -14 -7 -54 -10 -90 -3 -36 -8 -76 -10 -90 -2 -14 -6
-59 -10 -100 -3 -41 -8 -91 -10 -110 -2 -19 -7 -62 -9 -95 -3 -33 -8 -87 -11
-120 -3 -33 -7 -91 -10 -130 -2 -38 -7 -101 -9 -140 -3 -38 -8 -117 -11 -175
-3 -58 -7 -136 -10 -175 -23 -391 -24 -1404 0 -1705 2 -30 7 -109 10 -175 4
-66 8 -145 11 -175 2 -30 6 -91 9 -135 3 -44 8 -100 10 -125 2 -25 7 -76 10
-115 3 -38 8 -88 10 -110 2 -22 7 -71 10 -110 4 -38 8 -81 10 -95 2 -14 7 -56
11 -95 3 -38 8 -77 9 -85 2 -8 6 -44 10 -80 4 -36 10 -74 13 -85 4 -11 9 -414
12 -895 l5 -876 80 2 c44 1 82 2 85 3 3 0 4 389 4 863 l-2 863 29 120 c16 66
30 131 33 145 2 14 11 59 20 100 18 92 38 204 50 283 3 20 9 54 12 75 3 20 7
48 9 62 3 14 7 50 10 80 4 30 8 62 10 70 2 8 7 51 11 95 3 44 8 89 10 99 2 10
6 62 9 115 4 53 8 110 10 127 19 162 27 984 11 1299 -7 153 -9 186 -20 355 -9
123 -27 333 -41 465 -2 22 -7 67 -10 100 -5 55 -10 101 -20 180 -5 34 -12 98
-20 170 -3 28 -8 61 -10 75 -2 14 -6 45 -10 70 -7 54 -16 118 -21 145 -2 11
-6 39 -9 62 -8 65 -15 114 -25 168 -5 28 -12 73 -16 100 -3 28 -8 52 -9 55
-15 25 -18 421 -18 2513 l0 2387 -87 0 -87 0 0 -2473z"/>
<path d="M11151 10558 c0 -1234 -2 -2252 -5 -2263 -2 -11 -7 -60 -11 -109 -3
-49 -8 -101 -10 -116 -1 -14 -6 -70 -10 -125 -3 -55 -8 -107 -10 -115 -2 -8
-7 -55 -10 -105 -4 -49 -8 -101 -10 -115 -2 -14 -7 -70 -11 -125 -3 -55 -8
-107 -9 -115 -2 -8 -6 -62 -10 -120 -4 -58 -8 -121 -10 -140 -2 -19 -6 -82
-10 -140 -4 -58 -8 -119 -10 -137 -2 -18 -7 -83 -10 -145 -4 -62 -8 -138 -10
-168 -3 -30 -7 -113 -11 -185 -3 -71 -7 -150 -9 -175 -10 -124 -20 -576 -19
-905 0 -472 12 -792 39 -1055 2 -25 7 -72 10 -105 3 -33 8 -73 10 -90 2 -16 7
-52 10 -80 3 -27 8 -61 10 -75 3 -14 7 -45 10 -70 2 -25 6 -55 9 -66 2 -12 7
-37 10 -55 8 -49 34 -191 40 -214 2 -11 13 -54 23 -95 16 -69 18 -147 23 -935
l5 -860 83 0 c49 0 83 4 83 10 1 5 2 397 4 870 l2 860 37 120 c60 189 115 439
140 630 29 221 31 251 42 475 10 233 5 698 -11 826 -1 16 -6 79 -10 141 -3 62
-8 129 -10 150 -2 21 -7 72 -10 113 -4 41 -8 86 -10 100 -2 14 -7 59 -10 100
-3 41 -8 91 -10 110 -3 19 -9 85 -15 145 -6 61 -12 126 -15 145 -2 19 -7 62
-10 95 -3 33 -7 76 -10 95 -2 19 -7 62 -10 95 -4 33 -8 78 -11 100 -4 39 -8
86 -19 212 -3 34 -7 77 -9 95 -2 18 -7 78 -11 133 -4 55 -9 107 -10 115 -2 9
-6 67 -9 130 -4 63 -9 140 -11 170 -2 30 -7 105 -11 165 -3 61 -6 1220 -6
2578 l1 2467 -89 0 -88 0 -1 -2242z"/>
<path d="M11802 10848 l0 -1953 -41 -165 c-23 -91 -44 -176 -46 -190 -5 -25
-6 -32 -25 -125 -10 -54 -16 -85 -25 -155 -3 -25 -8 -52 -10 -60 -12 -42 -43
-345 -60 -580 -15 -215 -21 -725 -10 -970 9 -214 16 -353 20 -415 3 -33 7 -96
10 -140 3 -44 7 -107 10 -140 9 -113 15 -180 20 -255 3 -41 8 -88 10 -105 2
-16 6 -66 10 -110 3 -44 10 -111 14 -150 5 -38 9 -77 8 -85 0 -8 3 -42 7 -75
4 -33 9 -85 12 -115 3 -30 7 -68 9 -85 2 -16 7 -66 11 -110 3 -44 8 -88 10
-98 1 -9 6 -52 9 -95 8 -106 12 -147 19 -217 3 -33 8 -94 11 -135 3 -41 7
-100 10 -130 3 -30 8 -100 12 -155 4 -55 7 -634 6 -1287 -1 -907 1 -1187 10
-1190 10 -4 109 -3 151 1 12 1 14 202 11 1408 -2 775 -6 1435 -8 1468 -2 33
-7 139 -11 235 -8 215 -18 412 -31 633 -2 37 -7 113 -10 170 -3 56 -8 134 -10
172 -3 39 -8 115 -10 170 -3 55 -8 141 -10 190 -17 283 -30 561 -41 860 -10
264 -10 849 0 1050 8 166 10 193 21 335 13 163 14 175 19 210 3 19 8 55 11 80
4 25 8 56 10 70 2 14 7 45 10 70 6 52 32 200 50 282 9 43 12 488 12 1947 l0
1891 -87 0 -87 0 -1 -1952z"/>
<path d="M12470 11097 c0 -1655 -1 -1705 -19 -1778 -37 -139 -150 -665 -186
-864 -9 -49 -20 -110 -25 -135 -8 -38 -40 -223 -56 -325 -2 -16 -6 -41 -9 -55
-3 -14 -7 -41 -9 -60 -3 -19 -7 -51 -10 -70 -15 -101 -29 -199 -31 -228 -2
-18 -6 -45 -9 -60 -3 -15 -8 -52 -11 -82 -3 -30 -7 -68 -9 -85 -2 -16 -7 -64
-11 -105 -3 -41 -8 -82 -10 -90 -5 -17 -16 -150 -30 -359 -3 -51 -8 -119 -10
-150 -15 -221 -21 -760 -10 -1001 9 -197 23 -427 30 -470 2 -14 6 -59 10 -100
4 -41 8 -86 10 -100 2 -14 6 -50 10 -80 4 -30 8 -66 10 -80 2 -14 7 -45 10
-70 7 -49 43 -269 51 -310 3 -14 7 -38 9 -55 3 -16 7 -41 10 -55 3 -14 7 -36
10 -50 6 -32 18 -86 56 -240 53 -221 111 -421 172 -595 l60 -170 2 -850 c2
-467 4 -855 4 -860 1 -6 36 -10 86 -10 69 0 85 3 85 15 0 8 2 434 3 945 2 512
6 939 9 950 3 11 9 58 12 105 4 47 9 101 11 120 2 19 7 71 10 115 3 44 8 105
10 135 2 30 7 100 10 155 3 55 8 129 10 165 2 36 7 130 10 210 3 80 8 186 10
235 25 563 25 1800 0 2610 -7 220 -16 499 -21 600 -2 55 -6 161 -9 235 -6 143
-12 281 -20 445 -3 55 -7 150 -10 210 -3 61 -8 153 -10 205 -2 52 -7 129 -9
170 -3 41 -9 127 -13 190 -3 63 -7 861 -7 1773 l-1 1657 -87 0 -88 0 0 -1703z"/>
<path d="M13109 11348 c0 -799 -2 -1460 -4 -1468 -1 -8 -6 -33 -9 -55 -4 -22
-9 -51 -11 -65 -2 -14 -11 -74 -20 -135 -9 -60 -18 -121 -20 -135 -2 -14 -7
-47 -11 -75 -3 -27 -8 -57 -9 -65 -2 -8 -6 -40 -10 -70 -3 -30 -8 -67 -11 -81
-2 -15 -6 -47 -9 -70 -3 -24 -9 -78 -15 -119 -5 -41 -12 -102 -15 -135 -4 -33
-8 -73 -10 -90 -6 -48 -13 -115 -20 -180 -3 -33 -8 -78 -10 -100 -2 -22 -7
-71 -10 -110 -4 -38 -8 -86 -11 -105 -2 -19 -6 -69 -9 -110 -3 -41 -7 -100
-10 -130 -2 -30 -7 -89 -10 -130 -4 -41 -8 -106 -10 -145 -10 -203 -17 -316
-20 -365 -24 -335 -24 -1316 0 -1790 11 -211 16 -309 20 -355 2 -27 7 -93 11
-145 3 -52 7 -113 9 -135 10 -123 16 -194 20 -225 3 -19 7 -64 10 -100 4 -36
8 -76 10 -90 2 -14 6 -59 10 -100 3 -41 8 -82 10 -90 3 -8 7 -41 10 -73 3 -32
7 -72 10 -90 2 -18 9 -70 15 -117 6 -47 13 -96 15 -110 2 -14 7 -45 10 -70 11
-79 24 -169 30 -201 2 -9 6 -40 10 -70 4 -30 8 -56 10 -59 2 -3 6 -27 9 -55
10 -72 35 -217 44 -251 5 -16 8 -410 7 -877 0 -466 2 -848 5 -848 3 -1 42 -2
88 -3 l82 -2 1 901 c0 495 2 907 4 915 1 8 6 47 10 85 3 39 8 84 10 100 2 17
6 59 10 95 3 36 8 81 10 100 2 19 6 64 10 100 3 36 8 85 10 110 2 25 7 74 10
110 3 36 8 85 10 110 4 47 13 148 20 240 2 30 6 84 9 120 3 36 8 106 11 155 3
50 8 117 10 150 11 144 24 400 40 770 25 601 25 1660 0 2210 -2 39 -6 133 -9
210 -7 154 -14 280 -21 365 -2 30 -7 105 -10 165 -3 61 -8 126 -10 145 -2 19
-7 76 -10 125 -3 50 -7 106 -10 125 -2 19 -7 71 -10 115 -3 44 -8 96 -10 115
-2 19 -7 71 -10 115 -3 44 -8 87 -10 95 -2 8 -7 56 -10 105 -4 50 -8 92 -10
95 -1 3 -6 41 -10 84 -4 43 -8 86 -10 95 -1 9 -6 47 -10 84 -3 37 -9 78 -12
90 -3 12 -7 654 -9 1427 -1 773 -3 1408 -3 1413 -1 4 -39 7 -86 7 l-85 0 -1
-1452z"/>
<path d="M13739 11590 c-1 -665 -2 -1213 -3 -1217 -1 -5 -5 -35 -10 -68 -4
-33 -9 -71 -11 -85 -2 -14 -6 -47 -9 -75 -6 -45 -9 -71 -21 -155 -2 -14 -7
-56 -11 -95 -3 -38 -8 -78 -10 -88 -2 -10 -6 -48 -9 -85 -4 -37 -8 -78 -10
-92 -2 -14 -7 -56 -10 -95 -4 -38 -8 -81 -10 -95 -2 -14 -6 -59 -10 -100 -3
-41 -8 -91 -10 -110 -2 -19 -7 -71 -10 -115 -3 -44 -8 -100 -10 -125 -2 -25
-7 -83 -10 -130 -3 -47 -8 -107 -10 -135 -2 -27 -7 -97 -10 -155 -3 -58 -7
-139 -10 -180 -10 -162 -21 -435 -30 -755 -6 -192 -6 -1079 0 -1295 5 -209 14
-487 20 -610 13 -285 21 -424 30 -555 2 -33 7 -100 10 -150 3 -49 8 -117 10
-150 6 -69 13 -165 20 -262 3 -38 7 -90 10 -118 9 -83 14 -147 20 -215 7 -90
14 -176 20 -232 9 -91 15 -143 20 -203 3 -33 8 -71 10 -85 2 -14 6 -54 10 -90
3 -36 8 -76 10 -90 3 -14 7 -50 10 -80 12 -129 17 -167 25 -205 5 -22 9 -413
9 -870 0 -456 0 -839 1 -850 0 -19 7 -20 85 -20 l85 0 0 866 0 866 35 76 c79
171 165 478 219 777 20 113 26 151 31 190 7 53 14 95 20 130 2 14 7 50 10 80
6 60 12 104 19 165 3 22 8 67 11 100 3 33 7 78 9 100 6 56 18 205 30 365 5 62
14 229 21 390 21 464 21 1280 0 1730 -1 30 -5 125 -9 210 -4 85 -9 171 -11
190 -2 19 -7 91 -10 160 -4 69 -8 141 -10 160 -10 117 -18 200 -20 235 -4 65
-16 208 -20 240 -2 17 -6 53 -9 80 -3 28 -8 75 -11 105 -8 95 -20 201 -30 270
-2 14 -9 68 -15 120 -10 81 -32 232 -71 485 -5 33 -11 71 -14 85 -3 14 -10 52
-15 85 -6 33 -20 103 -30 155 -11 52 -21 106 -24 120 -7 41 -63 278 -88 375
l-24 90 0 1123 1 1122 -87 0 -88 0 -1 -1210z"/>
</g>
</svg>
